<mxfile host="app.diagrams.net" modified="2024-07-11T15:33:37.678Z" agent="Mozilla/5.0 (Windows NT 10.0; Win64; x64) AppleWebKit/537.36 (KHTML, like Gecko) Chrome/126.0.0.0 Safari/537.36 Edg/126.0.0.0" etag="bbVNOJBqt1WGmiS2j1fd" version="24.6.4" type="github">
  <diagram name="第 1 页" id="8fNlD3uoq2dp3X0ciNW0">
    <mxGraphModel dx="1002" dy="577" grid="1" gridSize="10" guides="1" tooltips="1" connect="1" arrows="1" fold="1" page="1" pageScale="1" pageWidth="827" pageHeight="1169" math="0" shadow="0">
      <root>
        <mxCell id="0" />
        <mxCell id="1" parent="0" />
        <mxCell id="_C-quwi_yky97DhlAQcO-1" value="WU1" style="ellipse;whiteSpace=wrap;html=1;aspect=fixed;fillColor=#d5e8d4;strokeColor=#82b366;" parent="1" vertex="1">
          <mxGeometry x="243" y="290" width="30" height="30" as="geometry" />
        </mxCell>
        <mxCell id="_C-quwi_yky97DhlAQcO-2" value="WU2" style="ellipse;whiteSpace=wrap;html=1;aspect=fixed;fillColor=#d5e8d4;strokeColor=#82b366;" parent="1" vertex="1">
          <mxGeometry x="292.5" y="290" width="30" height="30" as="geometry" />
        </mxCell>
        <mxCell id="_C-quwi_yky97DhlAQcO-3" value="WU3" style="ellipse;whiteSpace=wrap;html=1;aspect=fixed;fillColor=#f8cecc;strokeColor=#b85450;" parent="1" vertex="1">
          <mxGeometry x="343" y="290" width="30" height="30" as="geometry" />
        </mxCell>
        <mxCell id="_C-quwi_yky97DhlAQcO-4" style="rounded=0;orthogonalLoop=1;jettySize=auto;html=1;exitX=0;exitY=0;exitDx=0;exitDy=0;entryX=0.86;entryY=0.868;entryDx=0;entryDy=0;strokeWidth=1;dashed=1;endArrow=none;endFill=0;dashPattern=1 2;entryPerimeter=0;" parent="1" edge="1">
          <mxGeometry relative="1" as="geometry">
            <mxPoint x="347" y="294" as="sourcePoint" />
            <mxPoint x="369" y="316" as="targetPoint" />
          </mxGeometry>
        </mxCell>
        <mxCell id="_C-quwi_yky97DhlAQcO-5" style="rounded=0;orthogonalLoop=1;jettySize=auto;html=1;exitX=0;exitY=1;exitDx=0;exitDy=0;entryX=0.859;entryY=0.132;entryDx=0;entryDy=0;dashed=1;endArrow=none;endFill=0;dashPattern=1 2;entryPerimeter=0;" parent="1" edge="1">
          <mxGeometry relative="1" as="geometry">
            <mxPoint x="347" y="316" as="sourcePoint" />
            <mxPoint x="369" y="294" as="targetPoint" />
          </mxGeometry>
        </mxCell>
        <mxCell id="_C-quwi_yky97DhlAQcO-6" style="edgeStyle=orthogonalEdgeStyle;rounded=0;orthogonalLoop=1;jettySize=auto;html=1;entryX=0;entryY=0.5;entryDx=0;entryDy=0;endArrow=block;endFill=1;" parent="1" source="_C-quwi_yky97DhlAQcO-7" edge="1">
          <mxGeometry relative="1" as="geometry">
            <Array as="points">
              <mxPoint x="546.5" y="345" />
              <mxPoint x="546.5" y="355" />
            </Array>
            <mxPoint x="565.5" y="355.0000000000001" as="targetPoint" />
          </mxGeometry>
        </mxCell>
        <mxCell id="_C-quwi_yky97DhlAQcO-7" value="&lt;p style=&quot;line-height: 100%;&quot;&gt;&lt;font style=&quot;font-size: 10px;&quot;&gt;W3.v1&lt;/font&gt;&lt;/p&gt;" style="rounded=0;whiteSpace=wrap;html=1;fillColor=#d5e8d4;strokeColor=#82b366;" parent="1" vertex="1">
          <mxGeometry x="494.5" y="340" width="40" height="10" as="geometry" />
        </mxCell>
        <mxCell id="_C-quwi_yky97DhlAQcO-8" style="edgeStyle=orthogonalEdgeStyle;rounded=0;orthogonalLoop=1;jettySize=auto;html=1;entryX=0;entryY=0.5;entryDx=0;entryDy=0;endArrow=block;endFill=1;" parent="1" source="_C-quwi_yky97DhlAQcO-9" edge="1">
          <mxGeometry relative="1" as="geometry">
            <Array as="points">
              <mxPoint x="546.5" y="365" />
              <mxPoint x="546.5" y="355" />
            </Array>
            <mxPoint x="565.5" y="355.0000000000001" as="targetPoint" />
          </mxGeometry>
        </mxCell>
        <mxCell id="_C-quwi_yky97DhlAQcO-9" value="&lt;p style=&quot;line-height: 100%;&quot;&gt;&lt;font style=&quot;font-size: 10px;&quot;&gt;G3&lt;/font&gt;&lt;/p&gt;" style="rounded=0;whiteSpace=wrap;html=1;fillColor=#f8cecc;strokeColor=#b85450;" parent="1" vertex="1">
          <mxGeometry x="494.5" y="360" width="40" height="10" as="geometry" />
        </mxCell>
        <mxCell id="_C-quwi_yky97DhlAQcO-10" style="edgeStyle=orthogonalEdgeStyle;rounded=0;orthogonalLoop=1;jettySize=auto;html=1;entryX=0;entryY=0.5;entryDx=0;entryDy=0;endArrow=block;endFill=1;" parent="1" source="_C-quwi_yky97DhlAQcO-11" edge="1">
          <mxGeometry relative="1" as="geometry">
            <Array as="points">
              <mxPoint x="424.5" y="355" />
              <mxPoint x="424.5" y="365" />
            </Array>
            <mxPoint x="443.5" y="365" as="targetPoint" />
          </mxGeometry>
        </mxCell>
        <mxCell id="_C-quwi_yky97DhlAQcO-11" value="&lt;p style=&quot;line-height: 100%;&quot;&gt;&lt;font style=&quot;font-size: 10px;&quot;&gt;A3&lt;/font&gt;&lt;/p&gt;" style="rounded=0;whiteSpace=wrap;html=1;fillColor=#f8cecc;strokeColor=#b85450;" parent="1" vertex="1">
          <mxGeometry x="372.5" y="350" width="40" height="10" as="geometry" />
        </mxCell>
        <mxCell id="_C-quwi_yky97DhlAQcO-12" style="edgeStyle=orthogonalEdgeStyle;rounded=0;orthogonalLoop=1;jettySize=auto;html=1;entryX=0;entryY=0.5;entryDx=0;entryDy=0;endArrow=block;endFill=1;" parent="1" source="_C-quwi_yky97DhlAQcO-13" edge="1">
          <mxGeometry relative="1" as="geometry">
            <Array as="points">
              <mxPoint x="424.5" y="375" />
              <mxPoint x="424.5" y="365" />
            </Array>
            <mxPoint x="443.5" y="365" as="targetPoint" />
          </mxGeometry>
        </mxCell>
        <mxCell id="_C-quwi_yky97DhlAQcO-13" value="&lt;p style=&quot;line-height: 100%;&quot;&gt;&lt;font style=&quot;font-size: 10px;&quot;&gt;W3.v1&lt;/font&gt;&lt;/p&gt;" style="rounded=0;whiteSpace=wrap;html=1;fillColor=#d5e8d4;strokeColor=#82b366;" parent="1" vertex="1">
          <mxGeometry x="372.5" y="370" width="40" height="10" as="geometry" />
        </mxCell>
        <mxCell id="_C-quwi_yky97DhlAQcO-14" style="edgeStyle=orthogonalEdgeStyle;rounded=0;orthogonalLoop=1;jettySize=auto;html=1;entryX=0;entryY=0.5;entryDx=0;entryDy=0;endArrow=block;endFill=1;" parent="1" source="_C-quwi_yky97DhlAQcO-15" target="_C-quwi_yky97DhlAQcO-9" edge="1">
          <mxGeometry relative="1" as="geometry" />
        </mxCell>
        <mxCell id="_C-quwi_yky97DhlAQcO-15" value="BP3" style="ellipse;whiteSpace=wrap;html=1;aspect=fixed;fillColor=#f8cecc;strokeColor=#b85450;" parent="1" vertex="1">
          <mxGeometry x="443.5" y="350" width="30" height="30" as="geometry" />
        </mxCell>
        <mxCell id="_C-quwi_yky97DhlAQcO-16" style="edgeStyle=orthogonalEdgeStyle;rounded=0;orthogonalLoop=1;jettySize=auto;html=1;entryX=0;entryY=0.5;entryDx=0;entryDy=0;endArrow=block;endFill=1;" parent="1" source="_C-quwi_yky97DhlAQcO-17" edge="1">
          <mxGeometry relative="1" as="geometry">
            <Array as="points">
              <mxPoint x="302" y="345" />
              <mxPoint x="302" y="355" />
            </Array>
            <mxPoint x="321" y="355" as="targetPoint" />
          </mxGeometry>
        </mxCell>
        <mxCell id="_C-quwi_yky97DhlAQcO-17" value="&lt;p style=&quot;line-height: 100%;&quot;&gt;&lt;font style=&quot;font-size: 10px;&quot;&gt;A2&lt;/font&gt;&lt;/p&gt;" style="rounded=0;whiteSpace=wrap;html=1;fillColor=#d5e8d4;strokeColor=#82b366;" parent="1" vertex="1">
          <mxGeometry x="250" y="340" width="40" height="10" as="geometry" />
        </mxCell>
        <mxCell id="_C-quwi_yky97DhlAQcO-18" style="edgeStyle=orthogonalEdgeStyle;rounded=0;orthogonalLoop=1;jettySize=auto;html=1;entryX=0;entryY=0.5;entryDx=0;entryDy=0;endArrow=block;endFill=1;" parent="1" source="_C-quwi_yky97DhlAQcO-19" edge="1">
          <mxGeometry relative="1" as="geometry">
            <Array as="points">
              <mxPoint x="302" y="365" />
              <mxPoint x="302" y="355" />
            </Array>
            <mxPoint x="321" y="355" as="targetPoint" />
          </mxGeometry>
        </mxCell>
        <mxCell id="_C-quwi_yky97DhlAQcO-19" value="&lt;p style=&quot;line-height: 100%;&quot;&gt;&lt;font style=&quot;font-size: 10px;&quot;&gt;W2.v1&lt;/font&gt;&lt;/p&gt;" style="rounded=0;whiteSpace=wrap;html=1;fillColor=#f8cecc;strokeColor=#b85450;" parent="1" vertex="1">
          <mxGeometry x="250" y="360" width="40" height="10" as="geometry" />
        </mxCell>
        <mxCell id="_C-quwi_yky97DhlAQcO-20" style="edgeStyle=orthogonalEdgeStyle;rounded=0;orthogonalLoop=1;jettySize=auto;html=1;entryX=0;entryY=0.5;entryDx=0;entryDy=0;endArrow=block;endFill=1;" parent="1" source="_C-quwi_yky97DhlAQcO-21" edge="1">
          <mxGeometry relative="1" as="geometry">
            <mxPoint x="372.5" y="355" as="targetPoint" />
          </mxGeometry>
        </mxCell>
        <mxCell id="_C-quwi_yky97DhlAQcO-21" value="FP3" style="ellipse;whiteSpace=wrap;html=1;aspect=fixed;fillColor=#f8cecc;strokeColor=#b85450;" parent="1" vertex="1">
          <mxGeometry x="321" y="340" width="30" height="30" as="geometry" />
        </mxCell>
        <mxCell id="_C-quwi_yky97DhlAQcO-22" value="&lt;p style=&quot;line-height: 100%;&quot;&gt;&lt;span style=&quot;font-size: 10px;&quot;&gt;W3.v2&lt;/span&gt;&lt;/p&gt;" style="rounded=0;whiteSpace=wrap;html=1;fillColor=#f8cecc;strokeColor=#b85450;" parent="1" vertex="1">
          <mxGeometry x="566" y="350" width="40" height="10" as="geometry" />
        </mxCell>
        <mxCell id="Y-S93kWNsrdE_bwbDUJV-1" value="" style="rounded=1;whiteSpace=wrap;html=1;fillColor=none;arcSize=10;strokeWidth=2;" vertex="1" parent="1">
          <mxGeometry x="220" y="280" width="400" height="110" as="geometry" />
        </mxCell>
      </root>
    </mxGraphModel>
  </diagram>
</mxfile>
